<svg xmlns="http://www.w3.org/2000/svg" viewBox="0 0 120 72" width="120" height="72">
  <!-- Blue background -->
  <rect width="120" height="72" fill="#00247D" />

  <!-- Simplified Union Jack in the canton -->
  <g transform="scale(1)" aria-hidden="true">
    <rect x="0" y="0" width="48" height="32" fill="#00247D" />
    <!-- white diagonals -->
    <path d="M0 0 L48 32 M48 0 L0 32" stroke="#fff" stroke-width="6" stroke-linecap="square" />
    <!-- red diagonals (narrower) -->
    <path d="M0 0 L48 32 M48 0 L0 32" stroke="#C8102E" stroke-width="3" stroke-linecap="square" />
    <!-- central white cross -->
    <rect x="18" y="0" width="12" height="32" fill="#fff" />
    <rect x="0" y="12" width="48" height="8" fill="#fff" />
    <!-- central red cross -->
    <rect x="20.5" y="0" width="7" height="32" fill="#C8102E" />
    <rect x="0" y="13.5" width="48" height="5" fill="#C8102E" />
  </g>

  <!-- Commonwealth Star (large, below canton) -->
  <g transform="translate(56,20)">
    <polygon points="6,0 8,4 12,4 9,6 10,10 6,8 2,10 3,6 0,4 4,4" fill="#fff" />
  </g>

  <!-- Southern Cross (simplified) -->
  <g transform="translate(78,8)">
    <polygon points="4,0 5,2 7,2 5.5,3.2 6.2,5 4,4 1.8,5 2.5,3.2 1,2 3,2" fill="#fff" />
    <polygon points="14,8 15,10.5 17.5,10.5 15.8,12 16.5,14.5 14,13 11.5,14.5 12.2,12 10.5,10.5 13,10.5" fill="#fff" />
    <polygon points="8,12 9,14 11,14 9.5,15.2 10.2,17 8,15 6,17 6.7,15.2 5,14 7,14" fill="#fff" />
    <polygon points="20,16 21,18.5 23.5,18.5 21.8,20 22.5,22.5 20,21 17.5,22.5 18.2,20 16.5,18.5 19,18.5" fill="#fff" />
  </g>
</svg>
